<?xml version="1.0" encoding="UTF-8"?>
<svg xmlns="http://www.w3.org/2000/svg" xmlns:xlink="http://www.w3.org/1999/xlink" width="40px" height="40px" viewBox="0 0 40 40" version="1.1">
<g id="surface1">
<path style=" stroke:none;fill-rule:nonzero;fill:rgb(0%,0%,0%);fill-opacity:1;" d="M 11.984375 8.832031 C 7.515625 11.28125 3.691406 13.367188 3.484375 13.46875 C 3.054688 13.675781 2.878906 13.792969 2.601562 14.070312 C 1.847656 14.808594 1.460938 15.929688 1.5625 17.070312 C 1.648438 18.003906 1.933594 18.648438 2.539062 19.257812 L 2.878906 19.601562 L 2.675781 19.789062 C 2.292969 20.132812 1.957031 20.652344 1.769531 21.179688 C 1.488281 21.96875 1.476562 22.949219 1.742188 23.765625 C 1.914062 24.308594 2.300781 24.894531 2.703125 25.226562 L 2.898438 25.386719 L 2.773438 25.5 C 2.175781 26 1.769531 26.738281 1.605469 27.609375 C 1.542969 27.945312 1.539062 28.601562 1.59375 28.953125 C 1.8125 30.34375 2.710938 31.351562 4.023438 31.6875 C 4.15625 31.722656 4.976562 31.902344 5.84375 32.089844 C 7.261719 32.398438 13.890625 33.855469 19.75 35.144531 C 21.523438 35.535156 21.988281 35.628906 22.125 35.617188 C 22.289062 35.601562 22.789062 35.324219 30.265625 31.117188 C 36.523438 27.59375 38.253906 26.605469 38.324219 26.519531 C 38.460938 26.351562 38.476562 26.085938 38.367188 25.898438 C 38.214844 25.640625 37.894531 25.550781 37.617188 25.691406 C 37.542969 25.726562 34.011719 27.710938 29.765625 30.101562 C 25.523438 32.492188 22.023438 34.453125 21.996094 34.460938 C 21.96875 34.46875 20.179688 34.085938 18.011719 33.609375 C 15.851562 33.132812 13.023438 32.511719 11.734375 32.230469 C 10.445312 31.945312 8.398438 31.496094 7.1875 31.230469 C 5.976562 30.964844 4.789062 30.707031 4.554688 30.65625 C 3.945312 30.527344 3.664062 30.390625 3.328125 30.050781 C 2.9375 29.660156 2.753906 29.246094 2.6875 28.617188 C 2.628906 28.070312 2.714844 27.566406 2.953125 27.078125 C 3.230469 26.503906 3.675781 26.121094 4.179688 26.015625 L 4.386719 25.972656 L 6.589844 26.457031 C 7.804688 26.722656 10.230469 27.257812 11.984375 27.640625 C 18.996094 29.179688 20.914062 29.601562 21.453125 29.722656 C 21.804688 29.800781 22.0625 29.84375 22.140625 29.835938 C 22.234375 29.824219 24.234375 28.710938 30.214844 25.347656 C 34.585938 22.882812 38.195312 20.851562 38.234375 20.824219 C 38.273438 20.804688 38.335938 20.726562 38.371094 20.652344 C 38.460938 20.492188 38.453125 20.207031 38.351562 20.070312 C 38.191406 19.847656 37.914062 19.765625 37.679688 19.867188 C 37.605469 19.898438 34.054688 21.894531 29.78125 24.300781 C 24.554688 27.242188 21.992188 28.667969 21.9375 28.664062 C 21.894531 28.664062 20.300781 28.316406 18.390625 27.898438 C 16.484375 27.476562 12.558594 26.617188 9.671875 25.984375 C 6.785156 25.351562 4.308594 24.804688 4.171875 24.761719 C 3.4375 24.546875 2.929688 23.976562 2.734375 23.148438 C 2.664062 22.851562 2.664062 22.226562 2.730469 21.910156 C 2.875 21.257812 3.230469 20.710938 3.710938 20.40625 C 3.917969 20.273438 4.25 20.175781 4.429688 20.195312 C 4.554688 20.210938 5.957031 20.515625 12.054688 21.859375 C 12.558594 21.972656 13.023438 22.0625 13.082031 22.0625 C 13.214844 22.0625 13.410156 21.964844 13.492188 21.859375 C 13.695312 21.601562 13.632812 21.203125 13.367188 21.035156 C 13.300781 20.992188 12.335938 20.769531 10.484375 20.363281 C 8.953125 20.023438 7.15625 19.632812 6.484375 19.484375 C 5.816406 19.335938 5.007812 19.160156 4.695312 19.09375 C 3.929688 18.929688 3.683594 18.816406 3.328125 18.457031 C 2.9375 18.066406 2.757812 17.660156 2.6875 17.03125 C 2.648438 16.683594 2.679688 16.300781 2.773438 15.953125 C 2.84375 15.675781 3.070312 15.226562 3.242188 15.023438 C 3.496094 14.714844 3.925781 14.4375 4.144531 14.4375 C 4.195312 14.4375 4.792969 14.554688 5.472656 14.703125 C 20.195312 17.867188 22.023438 18.253906 22.140625 18.242188 C 22.234375 18.230469 24.195312 17.140625 30.210938 13.757812 C 34.582031 11.292969 38.1875 9.261719 38.226562 9.234375 C 38.339844 9.164062 38.4375 8.960938 38.4375 8.804688 C 38.4375 8.566406 38.339844 8.394531 38.148438 8.292969 C 38.105469 8.273438 36.917969 8 35.507812 7.691406 C 34.101562 7.382812 31.320312 6.769531 29.328125 6.332031 C 27.335938 5.894531 24.515625 5.273438 23.058594 4.957031 C 21.570312 4.628906 20.351562 4.375 20.261719 4.375 C 20.117188 4.375 19.664062 4.621094 11.984375 8.832031 Z M 11.984375 8.832031 "/>
<path style=" stroke:none;fill-rule:nonzero;fill:rgb(0%,0%,0%);fill-opacity:1;" d="M 37.640625 14.085938 C 37.589844 14.109375 34.046875 16.101562 29.769531 18.507812 L 21.992188 22.882812 L 21.691406 22.820312 C 21.523438 22.789062 20.667969 22.601562 19.785156 22.40625 C 18.328125 22.085938 18.167969 22.054688 18.058594 22.089844 C 17.5625 22.242188 17.484375 22.886719 17.9375 23.117188 C 18.101562 23.199219 21.875 24.035156 22.085938 24.039062 C 22.175781 24.039062 22.28125 24.007812 22.398438 23.945312 C 22.496094 23.890625 26.101562 21.867188 30.40625 19.445312 C 36.582031 15.964844 38.253906 15.011719 38.324219 14.925781 C 38.457031 14.765625 38.476562 14.5 38.371094 14.3125 C 38.230469 14.0625 37.882812 13.957031 37.640625 14.085938 Z M 37.640625 14.085938 "/>
<path style=" stroke:none;fill-rule:nonzero;fill:rgb(0%,0%,0%);fill-opacity:1;" d="M 14.40625 21.472656 C 14.40625 23.8125 14.414062 24.40625 14.445312 24.386719 C 14.464844 24.371094 14.765625 24.1875 15.105469 23.976562 L 15.726562 23.585938 L 15.871094 23.75 C 16.429688 24.371094 17.144531 25.152344 17.164062 25.152344 C 17.179688 25.15625 17.1875 23.765625 17.1875 22.070312 L 17.1875 18.976562 L 15.835938 18.753906 C 15.09375 18.632812 14.464844 18.53125 14.445312 18.53125 C 14.414062 18.53125 14.40625 19.140625 14.40625 21.472656 Z M 14.40625 21.472656 "/>
</g>
</svg>
